<?xml version="1.0" encoding="UTF-8"?>
<!DOCTYPE svg PUBLIC "-//W3C//DTD SVG 1.1//EN" "http://www.w3.org/Graphics/SVG/1.1/DTD/svg11.dtd">
<!-- Creator: CorelDRAW -->
<svg xmlns="http://www.w3.org/2000/svg" xml:space="preserve" width="148.781mm" height="109.989mm" version="1.1" style="shape-rendering:geometricPrecision; text-rendering:geometricPrecision; image-rendering:optimizeQuality; fill-rule:evenodd; clip-rule:evenodd"
viewBox="0 0 2619.46 1936.48"
 xmlns:xlink="http://www.w3.org/1999/xlink"
 xmlns:xodm="http://www.corel.com/coreldraw/odm/2003">
 <defs>
  <style type="text/css">
   <![CDATA[
    .fil0 {fill:white;fill-rule:nonzero}
   ]]>
  </style>
 </defs>
 <g id="Camada_x0020_1">
  <metadata id="CorelCorpID_0Corel-Layer"/>
  <path class="fil0" d="M962.73 0.33c0,0 -362.57,24.91 -599.7,215.32 -1.11,0.44 -2.44,1.11 -3.56,1.78 -41.15,38.04 -72.07,96.99 -110.32,181.52 -38.27,84.52 -78.75,193.29 -115.67,314.97 -73.63,243.57 -133.46,542.53 -133.46,823.91 -0.23,10.01 2.22,19.8 7.11,28.47 83.19,146.13 236.23,234.45 379.04,290.05 142.8,55.61 274.71,77.86 341.67,80.09 18.91,0.67 36.92,-8.01 48.05,-23.14l138.8 -192.18c111.88,26.46 243.13,44.49 395.05,44.49 151.93,0 283.17,-18.02 395.05,-44.49l138.8 192.18c11.13,15.13 29.14,23.81 48.05,23.14 66.95,-2.23 198.87,-24.47 341.67,-80.09 142.81,-55.6 295.84,-143.92 379.04,-290.05 4.9,-8.67 7.34,-18.47 7.11,-28.47 0,-281.38 -59.83,-580.35 -133.46,-823.91 -36.92,-121.68 -77.41,-230.45 -115.67,-314.97 -38.26,-84.53 -69.17,-143.48 -110.32,-181.52 -1.12,-0.67 -2.45,-1.33 -3.56,-1.78 -237.12,-190.41 -599.7,-215.32 -599.7,-215.32 -4.23,-0.44 -8.23,-0.44 -12.45,0 -19.8,2.67 -36.48,15.57 -44.5,33.81 0,0 -19.35,42.48 -32.03,103.21 -111,-17.8 -204.42,-23.14 -258.03,-23.14 -53.61,0 -147.03,5.34 -258.03,23.14 -12.68,-60.73 -32.03,-103.21 -32.03,-103.21 -9.79,-22.24 -32.7,-35.81 -56.95,-33.81zm-35.59 122.79c4.22,11.57 7.11,22.47 10.67,35.59 -128.35,29.81 -268.93,78.52 -400.39,160.16 -20.69,8.67 -34.25,28.7 -34.93,51.16 -0.44,22.25 12.24,42.94 32.26,52.72 20.24,9.57 44.26,6.68 61.39,-7.78 263.81,-163.49 599.47,-186.85 713.58,-186.85 114.11,0 449.77,23.35 713.58,186.85 17.13,14.46 41.15,17.35 61.39,7.78 20.03,-9.78 32.7,-30.47 32.26,-52.72 -0.67,-22.46 -14.24,-42.49 -34.93,-51.16 -131.46,-81.63 -272.04,-130.35 -400.39,-160.16 3.56,-13.12 6.46,-24.02 10.67,-35.59 64.95,8.01 317.42,42.04 489.37,177.96 11.12,10.22 49.82,67.17 85.41,145.92 35.59,78.74 72.96,181.28 108.55,298.95 69.41,229.56 125.46,512.71 128.13,772.3 -64.74,104.77 -186.19,182.63 -311.42,231.33 -113.88,44.27 -220.21,64.07 -275.83,69.41l-96.09 -129.91c48.93,-15.8 92.98,-32.92 131.68,-49.82 143.69,-63.18 220.66,-129.91 220.66,-129.91 23.58,-21.13 25.58,-57.39 4.45,-80.97 -21.12,-23.58 -57.39,-25.58 -80.97,-4.45 0,0 -59.62,54.49 -190.41,112.11 -48.05,21.12 -106.32,42.03 -172.61,60.5 -15.34,-1.78 -30.7,2.67 -42.71,12.46 -106.1,25.79 -232.22,42.7 -380.81,42.7 -149.7,0 -276.04,-18.46 -382.59,-44.49 -12.02,-8.01 -26.7,-11.34 -40.94,-8.9 -66.5,-18.45 -124.34,-41.15 -172.61,-62.27 -130.79,-57.62 -190.41,-112.11 -190.41,-112.11 -12.9,-12.02 -30.7,-17.13 -48.05,-14.24 -22.02,3.34 -40.26,19.12 -46.26,40.7 -6.23,21.36 0.88,44.5 17.79,58.95 0,0 76.96,66.73 220.66,129.91 38.71,16.91 82.75,34.03 131.68,49.82l-96.09 129.91c-55.61,-5.34 -161.94,-25.14 -275.83,-69.41 -125.23,-48.71 -246.68,-126.56 -311.42,-231.33 2.67,-259.59 58.72,-542.75 128.13,-772.3 35.59,-117.67 72.96,-220.22 108.55,-298.95 35.59,-78.75 74.29,-135.7 85.41,-145.92 171.95,-135.91 424.42,-169.95 489.37,-177.96zm12.45 674.43c-145.25,0 -256.25,131.91 -256.25,284.73 0,152.81 110.99,284.72 256.25,284.72 145.25,0 256.25,-131.91 256.25,-284.72 0,-152.82 -111,-284.73 -256.25,-284.73zm740.28 0c-145.25,0 -256.25,131.91 -256.25,284.73 0,152.81 111,284.72 256.25,284.72 145.25,0 256.24,-131.91 256.24,-284.72 0,-152.82 -110.99,-284.73 -256.24,-284.73zm-740.28 113.9c74.96,0 142.36,72.07 142.36,170.83 0,98.75 -67.4,170.83 -142.36,170.83 -74.96,0 -142.36,-72.08 -142.36,-170.83 0,-98.77 67.4,-170.83 142.36,-170.83zm740.28 0c74.96,0 142.36,72.07 142.36,170.83 0,98.75 -67.4,170.83 -142.36,170.83 -74.96,0 -142.36,-72.08 -142.36,-170.83 0,-98.77 67.4,-170.83 142.36,-170.83z"/>
 </g>
</svg>
