<?xml version="1.0" encoding="UTF-8"?>
<!DOCTYPE svg PUBLIC "-//W3C//DTD SVG 1.1//EN" "http://www.w3.org/Graphics/SVG/1.1/DTD/svg11.dtd">
<!-- Creator: CorelDRAW -->
<svg xmlns="http://www.w3.org/2000/svg" xml:space="preserve" width="135.467mm" height="133.351mm" version="1.1" style="shape-rendering:geometricPrecision; text-rendering:geometricPrecision; image-rendering:optimizeQuality; fill-rule:evenodd; clip-rule:evenodd"
viewBox="0 0 2012.99 1981.56"
 xmlns:xlink="http://www.w3.org/1999/xlink"
 xmlns:xodm="http://www.corel.com/coreldraw/odm/2003">
 <defs>
  <style type="text/css">
   <![CDATA[
    .fil0 {fill:white}
   ]]>
  </style>
 </defs>
 <g id="Camada_x0020_1">
  <metadata id="CorelCorpID_0Corel-Layer"/>
  <g id="_2745893522000">
   <path class="fil0" d="M754.87 1446.86c0,-34.77 28.14,-62.91 62.91,-62.91 34.77,0 62.91,28.14 62.91,62.91 0,34.77 -28.14,62.91 -62.91,62.91 -34.77,0 -62.91,-28.13 -62.91,-62.91l0 0zm618.55 496c-16.77,4.79 -34.1,8.23 -52.4,8.23 -104.25,0 -188.72,-84.47 -188.72,-188.72l0 -228.77c0,-79 50.71,-146.08 121.08,-170.78 135.12,-45.39 256.36,-159.41 256.36,-293.39l0 -125.83c0,-59.62 -24.33,-115.14 -62.91,-162.64l-0 -142.06c0,-69.46 -56.33,-93.26 -125.81,-53.06l-96.39 55.73c-30.87,-8 -62.04,-12.5 -92.33,-12.5l-251.63 0c-30.27,0 -61.46,4.5 -92.33,12.5l-96.39 -55.74c-69.46,-40.19 -125.81,-16.4 -125.81,53.06l0 142.06c-38.58,47.5 -62.91,103.02 -62.91,162.64l0 125.83c0,91.53 56.96,173.73 135.95,231.23l-0.08 0.12c16.4,11.24 27.3,30.23 27.3,51.73 0,34.71 -28.21,62.91 -62.91,62.91 -17.77,0 -33.71,-7.43 -45.13,-19.29 -106.23,-80.47 -180.95,-196.83 -180.95,-326.69l0 -125.83c0,-72.83 23.64,-141.45 62.91,-201.99l0 -187.28c0,-138.93 112.62,-186.51 251.62,-106.14l107.97 62.46c26.92,-4.58 53.91,-7.4 80.75,-7.4l251.63 0c26.85,0 53.82,2.83 80.75,7.4l107.97 -62.46c139.02,-80.37 251.62,-32.79 251.62,106.14l0 187.28c39.25,60.54 62.91,129.16 62.91,201.99l0 125.83c0,187.18 -154.32,346.54 -336.28,410.3 -0.22,0.18 -0.43,0.68 -0.74,0.74 -23.65,9.09 -40.42,31.94 -40.42,58.79l0 223.12c0,34.77 28.14,62.91 62.91,62.91 5.25,0 10.07,-1.47 14.93,-2.7 323.07,-130.36 551.23,-446.24 551.23,-816.07 0,-486.4 -394.27,-880.69 -880.69,-880.69 -486.4,0 -880.69,394.28 -880.69,880.69 0,382.98 244.76,707.95 586.29,829.16 1.75,0.18 3.35,0.92 5.17,0.92 20.75,0 37.59,-16.89 37.59,-37.59 0,-20.76 -16.85,-37.59 -37.59,-37.59 -0.44,0 -0.44,-0.37 -0.75,-0.55 -209.01,-5.59 -209.24,-251.07 -276.18,-251.07 -34.77,0 -62.91,-28.14 -62.91,-62.91 0,-34.77 28.14,-62.91 62.91,-62.91 6.64,0 16.54,0 31.41,0 125.89,0 107.9,251.62 283.12,251.62 69.46,0 125.81,56.33 125.81,125.81l0 110.09c0,60.76 -49.25,110.09 -110.1,110.09 -6.64,0 -12.88,-1.35 -19.21,-2.58 -432.11,-112.98 -751.37,-504.91 -751.37,-972.49 0,-555.87 450.63,-1006.5 1006.5,-1006.5 555.87,0 1006.5,450.63 1006.5,1006.5 0,426.23 -265.35,789.66 -639.57,936.36l0 0z"/>
  </g>
 </g>
</svg>
