<?xml version="1.0" encoding="UTF-8"?>
<!DOCTYPE svg PUBLIC "-//W3C//DTD SVG 1.1//EN" "http://www.w3.org/Graphics/SVG/1.1/DTD/svg11.dtd">
<!-- Creator: CorelDRAW -->
<svg xmlns="http://www.w3.org/2000/svg" xml:space="preserve" width="122.26mm" height="122.26mm" version="1.1" style="shape-rendering:geometricPrecision; text-rendering:geometricPrecision; image-rendering:optimizeQuality; fill-rule:evenodd; clip-rule:evenodd"
viewBox="0 0 2517.37 2517.37"
 xmlns:xlink="http://www.w3.org/1999/xlink"
 xmlns:xodm="http://www.corel.com/coreldraw/odm/2003">
 <defs>
  <style type="text/css">
   <![CDATA[
    .fil0 {fill:white}
   ]]>
  </style>
 </defs>
 <g id="Camada_x0020_1">
  <metadata id="CorelCorpID_0Corel-Layer"/>
  <g id="_2745896362512">
   <path class="fil0" d="M864.8 1573.6c43.35,0 78.39,35.13 78.39,78.39 0,43.26 -35.08,78.36 -78.39,78.36 -43.26,0 -78.36,-35.08 -78.36,-78.36 0,-43.28 35.13,-78.39 78.36,-78.39l0 0zm-229.76 -224.48c-49.59,-344.13 189.19,-663.25 533.33,-712.84 344.14,-49.59 663.29,189.19 712.88,533.33 49.59,344.14 -189.19,663.29 -533.33,712.88 -3.85,0.6 -7.55,0.6 -11.37,1.03l11.64 -1.6c-43.04,6.17 -82.84,-23.68 -89.09,-66.68 -6.17,-42.99 23.68,-82.91 66.68,-89.17l-0.12 -0.28c0.12,0 0.19,0 0.31,0 258.03,-37.17 436.97,-276.44 399.78,-534.47 -37.17,-258.06 -276.39,-437 -534.47,-399.83 -257.92,37.17 -437,276.44 -399.78,534.47 0,0.12 0,0.19 0.07,0.19l-0.28 0.12 0 0c6.17,42.99 -23.68,82.84 -66.68,89.05 -42.99,6.17 -82.91,-23.64 -89.17,-66.63l1.73 11.71c-0.51,-3.85 -1.58,-7.48 -2.13,-11.28l0 0zm1252.55 -837.58c0,-65.22 52.94,-118.16 118.23,-118.16 64.58,0 116.94,51.84 117.96,116.34l0 3.7c-1.03,64.51 -53.37,116.34 -117.96,116.34 -65.28,0.01 -118.23,-52.94 -118.23,-118.23l0 0zm419.78 1790.29c-136.81,138.21 -326.63,215.55 -654.88,215.55l-787.69 0c-328.23,0 -518.03,-77.34 -654.76,-215.55 -134.99,-136.34 -210.05,-326.63 -210.05,-649.26l0 -787.69c0,-322.73 75.05,-512.92 210.05,-649.24 136.72,-138.26 326.51,-215.64 654.76,-215.64l787.65 0c328.28,0 518.06,77.36 654.86,215.62 8.77,8.77 16.8,18.41 24.9,27.93 16.61,14.39 27.34,35.49 27.34,59.2 0,43.47 -35.2,78.67 -78.67,78.67 -23.76,0 -44.84,-10.78 -59.24,-27.46l-1.03 0.83c-8.1,-9.63 -15.7,-19.62 -24.66,-28.63 -119.66,-121 -296.3,-168.47 -583.59,-168.47l-707.79 -0.01c-287.22,0 -463.52,47.48 -583.16,168.46 -118.11,119.3 -164.06,296.42 -164.06,578.72l0 707.89c0,282.42 45.94,459.07 164.06,578.33 119.66,120.95 295.94,168.94 583.16,168.94l707.89 0c287.29,0 463.95,-47.99 583.59,-168.94 118.11,-119.26 163.59,-295.91 163.59,-578.33l0 -707.85c0,-68.76 -2.84,-131.11 -8.58,-188.01l0.36 -0.07c-4.25,-43.38 27.18,-82.17 70.64,-86.78 43.54,-4.49 82.6,27.15 87.04,70.6 0.12,1.14 0,2.2 0,3.35l0.19 0c4.76,50.11 8.07,102.62 8.07,160.88l0 787.66c0,322.66 -75.13,512.95 -210,649.29l0 0z"/>
  </g>
 </g>
</svg>
