<?xml version="1.0" encoding="UTF-8"?>
<!DOCTYPE svg PUBLIC "-//W3C//DTD SVG 1.1//EN" "http://www.w3.org/Graphics/SVG/1.1/DTD/svg11.dtd">
<!-- Creator: CorelDRAW -->
<svg xmlns="http://www.w3.org/2000/svg" xml:space="preserve" width="547.864mm" height="203.555mm" version="1.1" style="shape-rendering:geometricPrecision; text-rendering:geometricPrecision; image-rendering:optimizeQuality; fill-rule:evenodd; clip-rule:evenodd"
viewBox="0 0 61935.8 23011.82"
 xmlns:xlink="http://www.w3.org/1999/xlink"
 xmlns:xodm="http://www.corel.com/coreldraw/odm/2003">
 <defs>
  <style type="text/css">
   <![CDATA[
    .fil0 {fill:white;fill-rule:nonzero}
   ]]>
  </style>
 </defs>
 <g id="Camada_x0020_1">
  <metadata id="CorelCorpID_0Corel-Layer"/>
  <g>
   <path class="fil0" d="M47140.2 0.66c358.13,-0.79 716.67,-0.79 1076,-0.4 -1.99,172.68 0.41,345.37 0.8,518.46 916.87,0.4 1834.14,-0.4 2751.41,0 -0.79,372.09 -0.4,744.18 0,1116.29 183.85,0.4 372.09,0.4 557.95,0.79 -2,172.29 0.4,345.38 0.79,518.06 358.14,0 716.68,0 1076.01,0.4 -2,185.45 0.4,371.7 0.79,557.55 183.46,0 371.7,0.4 557.95,0.79 0,1275.81 0,2552.02 0,3827.82 -188.24,0 -372.09,0.4 -557.95,0.8 -1.59,730.63 0,1461.65 -0.79,2192.68 -188.24,-0.4 -371.7,0.4 -557.55,0.79 -2.39,185.46 -0.4,371.7 -0.79,557.55 -174.68,0 -345.38,0.4 -517.67,0.79 -1.59,371.7 -1.19,744.19 -0.4,1116.29 358.14,0 717.07,-0.4 1076.8,0 0,1276.21 0,2552 0,3828.21 -188.63,-0.4 -372.09,0.4 -558.34,0.8 0,1089.56 -0.4,2179.52 0,3269.47 -175.08,-0.4 -345.77,0.4 -518.06,0.79 -1.19,557.95 -0.4,1115.89 -0.4,1674.23 -188.24,-0.41 -372.09,0.4 -558.34,0.79 -0.4,903.72 0,1807.43 0,2711.54 -188.24,-0.8 -372.09,0 -558.34,0 0,-1089.96 -0.4,-2179.92 0,-3269.88 -188.24,-1.2 -372.09,-0.4 -558.34,-0.79 -0.4,-2193.08 0.41,-4386.16 -0.4,-6579.64 -174.68,-0.8 -345.37,-0.4 -517.65,-0.8 -2.4,-186.64 -0.41,-372.09 -0.8,-557.93 -545.18,0 -1090.35,0 -1634.74,0 0,731.02 -0.4,1462.05 0,2193.07 170.69,-0.4 345.38,0.41 518.47,0.8 -0.41,1103.12 0,2206.23 0,3309.75 184.25,-0.8 372.09,0 558.33,0.4 -1.99,171.89 0,344.98 0,518.06 -1648.69,0 -3296.99,0 -4945.68,0 -1.59,-173.49 0,-345.77 0.4,-518.46 184.25,-0.8 372.09,0 557.95,-0.4 -1.59,-186.64 0.4,-371.7 0.79,-557.55 183.85,-1.19 371.7,-0.4 557.55,-0.79 0.79,-731.02 -0.8,-1461.65 0.79,-2192.68 183.85,-0.8 372.09,-0.41 557.95,-0.8 -2,-186.64 0,-371.7 0,-557.93 -188.24,-0.41 -372.09,0 -558.34,-0.41 -0.4,-1089.96 -0.4,-2179.91 0,-3269.47 184.25,-0.79 372.49,-0.4 558.34,-0.79 -0.41,-557.95 -0.41,-1116.29 0,-1674.23 -188.24,-0.79 -372.09,-0.4 -558.34,-0.79 -0.8,-358.93 -0.8,-717.47 0,-1076.01 184.25,-0.79 372.09,-0.4 558.34,-0.79 -2,-186.25 0,-371.7 0,-557.95 -188.24,-0.4 -372.09,0 -558.34,-0.4 -0.8,-358.54 -0.8,-717.47 0,-1076 184.25,-0.8 372.49,-0.41 558.34,-0.8 -0.41,-916.88 0,-1834.14 0,-2751.41 -188.24,0 -372.09,0 -558.34,-0.41 -0.8,-358.53 -0.4,-717.46 0,-1076.39 -372.89,0 -744.99,0 -1116.68,0 -1.99,-186.25 0,-372.09 0,-558.34 371.7,0 743.79,0 1116.29,0 -1.61,-186.25 0.4,-372.09 0.79,-558.34 358.14,0 716.67,0 1076.01,0 -1.61,-186.25 0.4,-372.09 0.79,-558.34 371.3,0 743.39,0 1115.88,0 -1.99,-173.09 0.41,-345.38 0.8,-518.06l0 0zm557.93 514.87c0,187.04 -1.99,374.08 0,561.53 173.49,0 345.38,0 521.26,0 -5.58,-182.65 -13.17,-365.32 -17.95,-547.57 -167.9,-5.99 -337.79,-9.58 -503.31,-13.96l0 0zm0 2755.01c0,2007.23 0,4014.46 0,6022.09 172.69,0 343.39,-0.4 518.47,0 -0.41,-358.93 -0.8,-717.87 0,-1076.8 371.68,0 743.79,0 1116.27,0 0.4,-186.25 -1.59,-372.49 0.8,-557.95 172.29,-0.4 342.97,-0.79 517.65,-0.79 0.4,-185.85 -1.59,-372.09 0.8,-557.54 185.84,-0.41 369.69,-0.8 557.93,-0.41 0,-917.27 -0.4,-1834.54 0,-2751.41 -185.84,-0.4 -374.08,-0.8 -557.93,-0.8 -0.41,-172.68 -2.79,-345.37 -0.41,-518.05 -173.08,0 -347.76,-0.41 -518.46,0 -0.79,545.17 0,1089.96 0,1635.13 -186.24,0 -374.08,-0.4 -558.34,0 -0.79,-545.17 0,-1089.96 0,-1634.73 -186.24,-0.4 -374.08,-0.8 -557.93,-0.8 -0.4,-185.84 -2.4,-372.09 -0.4,-557.93 -173.09,0 -347.77,-0.41 -518.47,0z"/>
  </g>
  <path class="fil0" d="M3270.67 1077.06c372.09,-0.4 744.18,-0.4 1116.27,0 -0.4,186.25 0,372.49 0.41,558.34 730.62,0 1461.65,0 2192.68,0 0,-186.25 0.4,-372.09 0.79,-558.34 185.46,0 371.7,0 557.95,0 0,1648.3 0,3296.99 0,4945.29 -372.49,0.41 -744.59,0.41 -1116.68,0 -0.4,-186.64 0,-372.09 -0.4,-557.93 -186.25,-0.8 -371.7,-0.41 -557.54,-0.8 -0.41,-186.25 -0.41,-371.7 -0.8,-557.54 -172.68,-0.4 -344.97,-0.4 -517.67,-0.8 -0.4,-172.68 -0.4,-345.37 -0.79,-518.06 -186.25,-0.4 -371.7,0 -557.95,0 -0.4,172.69 0,345.38 -0.4,518.06 -186.25,0 -371.7,0.41 -557.54,0.8 -0.41,185.45 -0.41,371.7 -0.8,557.54 -186.25,0 -372.09,0.4 -557.93,0.8 0,544.77 0,1089.56 0,1634.34 558.33,0.8 1116.27,0 1674.62,0.4 0,185.85 0.4,372.09 0.79,557.95 172.29,0 344.98,0.4 517.67,0.79 0,185.46 0.4,371.7 0.8,557.55 185.45,0 371.68,0.4 557.54,0.79 0,185.45 0.4,371.7 0.79,557.55 185.46,0 371.7,0.4 557.55,0.79 0,172.29 0.4,344.97 0.79,517.67 185.46,0 371.7,0.4 557.95,0.79 0.8,731.02 -0.8,1462.06 0.4,2193.08 172.29,-0.4 345.38,0 518.06,0 -0.4,-173.49 0,-345.38 0.4,-518.06 185.46,-0.8 371.7,-0.4 557.55,-0.8 1.2,-731.02 -0.41,-1461.65 0.79,-2192.68 185.45,-0.4 371.7,-0.4 557.95,-0.79 0.79,-731.04 -0.8,-1462.06 0.4,-2192.69 358.54,-0.4 717.07,-0.4 1076.01,-0.79 0,-186.25 0.4,-371.7 0.79,-557.54 185.45,-0.8 371.7,-0.41 557.54,-0.8 0,-186.25 0.41,-371.7 0.8,-557.95 371.7,0 743.79,0 1115.88,0 0,-186.64 0.4,-372.09 0.8,-558.33 171.88,-0.41 344.97,0 518.06,0 -0.8,185.84 0,372.09 0.4,558.33 544.77,0 1089.56,0 1634.34,0 -0.4,-186.24 0.4,-372.09 0.8,-557.93 185.05,-0.4 371.7,-0.4 557.54,-0.8 -0.4,-172.68 0.4,-345.37 0.8,-518.06 185.45,-0.4 372.09,0 557.93,0 -0.4,731.04 0,1462.06 0,2193.08 -186.64,0 -372.09,0.4 -558.34,0.79 0,1089.97 -0.4,2179.52 0,3269.49 -186.64,0 -372.09,0.4 -558.34,0.79 -0.79,544.79 0.41,1089.56 0,1634.74 -173.47,-0.4 -345.76,0 -518.46,0 -0.4,-904.11 0.41,-1808.23 0,-2711.94 -186.64,-0.4 -372.09,0 -558.34,0 -0.4,172.29 0,345.77 -0.4,518.46 -186.25,-0.4 -371.7,0 -557.93,0 -0.8,-545.18 0.4,-1090.35 0,-1635.14 -173.49,-0.4 -345.77,0 -518.47,0 -0.4,185.85 0,372.09 -0.4,557.95 -186.25,0 -371.7,0.4 -557.93,0.79 -0.8,544.79 0.4,1089.56 0,1634.35 -186.64,-0.41 -372.1,0.4 -558.34,0.79 -0.41,1275.81 0,2552.02 0,3827.82 185.84,-0.4 372.09,0.41 558.34,0.8 0,371.7 0,744.18 0,1116.27 731.02,0 1462.05,0 2193.47,0 -0.4,-372.49 0,-744.58 0,-1116.27 172.29,-0.8 345.38,-0.4 518.46,-0.8 0,-358.93 -0.4,-717.87 0,-1076.39 185.46,-0.41 372.1,0 558.34,0 0,2193.47 0,4386.55 0,6580.03 -186.64,-0.8 -372.09,0.4 -558.34,0.79 -0.79,544.79 0.41,1089.56 0,1634.74 -173.47,-0.8 -345.76,0 -518.05,0 -1.59,-731.02 0.4,-1462.06 -0.8,-2193.08 -186.64,-0.79 -371.7,-0.4 -557.95,-0.79 -0.4,-358.93 0,-717.87 0,-1076.4 -358.93,-0.4 -717.87,-0.4 -1076.39,0 -0.8,171.89 -0.41,345.37 -0.8,518.46 -186.25,-0.8 -371.7,0 -557.93,0 -0.41,-358.93 0,-717.87 0,-1076.4 -186.64,-1.2 -372.1,-0.4 -557.95,-0.79 -0.8,-186.64 -0.4,-371.7 -0.8,-557.95 -358.93,-0.4 -717.46,0 -1076,-0.4 -0.8,-186.64 -0.4,-371.7 -0.8,-557.54 -186.24,-1.2 -371.68,-0.41 -557.93,-0.8 -0.4,-358.93 0,-717.47 0,-1076 -186.64,-0.8 -372.09,-0.41 -558.34,-0.8 0,-372.09 0,-744.18 0,-1116.27 -358.93,-0.41 -717.87,-0.41 -1076.8,0 0,372.09 0,744.18 0,1116.27 -186.64,-0.4 -372.09,0.4 -558.34,0.8 -0.4,916.87 0.4,1834.14 0,2751.41 -186.64,-0.8 -372.09,0 -558.34,0 0,-372.5 0,-744.59 0,-1116.68 -186.25,-0.79 -372.09,0 -558.34,0 -0.4,185.45 0,372.09 -0.4,557.95 -172.68,-0.41 -344.97,0.4 -517.67,0.79 -0.4,185.05 -0.4,371.7 -0.79,557.55 -186.25,-0.41 -371.7,0.4 -557.54,0.79 -0.41,171.89 -0.41,344.97 -0.8,517.67 -186.25,-0.41 -371.7,0.4 -557.54,0.79 -0.41,185.05 -0.41,371.7 -0.8,557.55 -186.25,-0.41 -371.7,0.4 -557.93,0.79 0,371.7 0,743.79 0,1116.29 -173.09,-0.8 -345.38,0 -518.06,0 -1.2,-731.02 0.4,-1462.06 -0.8,-2193.08 -185.84,-0.79 -371.7,-0.4 -557.54,-0.79 -0.4,-186.64 -0.4,-371.7 -0.8,-557.95 -372.09,-0.4 -744.18,0 -1116.27,0 -0.4,-1276.21 0,-2552.41 0,-3828.21 186.25,-0.8 372.09,-0.41 557.93,-0.8 0.41,-186.64 0.41,-371.7 0.8,-557.93 185.84,-0.41 371.7,0 557.95,0 0,185.45 0,372.09 0.4,557.93 185.84,-0.4 371.7,0.4 557.54,0.8 0,171.88 0.4,344.97 0.8,517.65 172.29,-0.4 345.37,0.41 518.06,0.8 0,371.7 0,744.18 0,1116.27 185.84,-0.79 372.09,0 558.33,0 0.41,-545.17 -0.4,-1090.35 0,-1635.14 372.1,0 744.59,0 1116.68,0 0,-917.26 0.4,-1834.54 0,-2751.81 -186.24,-0.4 -372.09,0 -557.93,-0.4 -0.41,-186.25 -0.41,-371.7 -0.8,-557.95 -544.77,0 -1089.56,0 -1634.74,0 0,372.09 0,744.18 0,1116.68 -186.24,-0.41 -372.09,0 -558.33,0 0,-372.5 0,-744.59 0,-1116.68 -372.1,0 -744.19,0 -1116.68,0 -0.4,-545.18 0.4,-1089.96 0,-1634.74 -173.09,-0.79 -345.38,-0.4 -518.06,-0.79 -0.8,-544.79 0,-1089.56 -0.4,-1634.35 -186.25,-0.4 -372.09,-0.4 -558.34,-0.79 0,-186.25 0,-371.7 0,-557.95 186.25,-0.4 372.09,0 558.34,-0.4 0.4,-544.77 -0.41,-1089.56 0.4,-1634.34 172.29,-0.41 345.38,-0.41 518.06,-0.8 0,-372.09 0,-744.18 0,-1115.88 186.25,-0.4 372.09,-0.4 557.93,-0.8 0.41,-185.84 0.41,-371.68 0.8,-557.54 185.84,-0.4 371.7,-0.4 557.54,-0.79 0.41,-172.69 0.41,-344.98 0.8,-517.67 185.84,-0.4 371.7,-0.4 557.54,-0.8 0,-185.84 0.4,-371.68 0.8,-557.54 172.29,-0.4 344.97,-0.4 517.65,-0.79 0,-185.85 0.41,-371.7 0.8,-557.95z"/>
  <path class="fil0" d="M54239.08 1635.4c2565.57,0 5131.14,0 7696.71,0 -2.79,172.68 0,345.37 0,518.46 -188.63,0 -372.09,0 -558.34,0.4 -1.2,730.63 0.4,1461.65 -0.4,2192.68 -188.65,0 -371.7,0.41 -557.95,0.8 -0.79,372.09 -0.79,744.18 0,1116.27 -175.48,-0.4 -345.77,0 -518.46,0 -0.79,-372.09 -0.4,-744.18 0,-1116.27 -188.63,-0.4 -372.09,-0.4 -557.95,-0.8 -3.19,-172.68 -0.79,-345.37 -0.79,-518.05 -188.24,-0.41 -371.7,0 -557.95,0 -2.79,172.68 -0.4,345.37 -0.4,518.05 -545.18,0.8 -1090.35,0 -1634.74,0.41 -0.79,372.09 -0.4,744.18 0,1116.27 -188.63,0 -372.09,0.4 -558.33,0.8 -0.41,1089.96 -0.41,2179.91 0,3269.87 371.68,0 743.79,0 1116.67,0 -0.79,-358.93 -0.79,-717.87 0.41,-1076.4 169.89,-0.79 344.97,-0.4 517.65,-0.79 -2.4,-186.25 0.4,-371.7 0.8,-557.95 183.45,-0.4 372.09,0 557.93,0 0,1834.55 0,3669.09 0,5503.64 -188.63,-0.41 -372.09,0 -558.34,0 -2.39,-186.64 0,-372.1 -0.4,-557.95 -175.08,-0.8 -345.37,-0.4 -518.06,-0.8 -0.79,-372.09 -0.4,-744.18 0,-1115.88 -372.88,-0.79 -744.99,-0.79 -1116.67,-0.4 -0.41,1462.05 0.4,2924.5 -0.41,4386.55 -188.24,-0.4 -371.7,0.4 -557.93,0.8 -1.2,371.7 -0.8,743.79 0,1116.27 183.85,-0.79 372.49,0 558.34,0.4 -2.4,185.05 0,371.7 0,557.95 -188.65,-0.8 -372.1,0 -558.34,0.4 -0.8,358.54 -0.41,717.07 0,1076.01 -175.49,-0.41 -345.77,0.4 -518.06,0.79 -1.2,544.79 -0.4,1089.56 -0.4,1634.74 -188.65,-0.8 -372.1,0 -558.34,0 -1.2,-545.18 0,-1089.96 0,-1634.74 -188.65,-1.2 -372.09,-0.4 -558.34,-0.79 -0.4,-2007.23 0,-4014.06 0,-6021.29 -188.65,-0.8 -372.09,-0.4 -558.34,-0.8 -0.4,-3110.35 0,-6221.1 0,-9331.84 -175.48,0 -345.77,0 -518.46,-0.4 -2.4,-185.85 0,-371.7 0,-557.95 170.29,0 345.37,0 518.06,-0.4 -2,-172.69 0.4,-345.38 0.79,-518.06z"/>
  <path class="fil0" d="M32862.67 4387.61c371.68,-0.8 743.79,-0.8 1116.27,-0.41 -1.59,172.69 0,345.38 0,518.47 -187.44,-0.41 -372.09,0 -558.34,0.4 -0.4,2379.32 0,4758.64 0,7138.37 -187.44,-0.41 -372.09,0 -558.34,0.4 -1.59,185.45 0,371.7 0,557.95 184.66,-0.8 372.09,0 558.34,0.4 -0.4,358.54 -0.4,717.47 0,1076.4 371.7,0 744.19,0 1116.68,0 -1.59,-186.64 0,-372.1 0.4,-558.34 358.14,-0.41 717.07,0 1076.4,0 0,-2007.23 0,-4014.46 0,-6021.69 -187.45,-0.41 -372.09,-0.41 -557.95,-0.8 -1.99,-173.09 -0.79,-344.97 -0.79,-517.67 -174.29,-0.79 -345.38,-0.4 -518.06,-0.79 -1.59,-186.25 0,-371.7 0,-557.95 358.54,-0.4 717.06,0 1076.4,0 -1.2,-186.64 0.4,-372.09 0.79,-558.34 371.3,0 743.79,0 1115.88,0 -1.19,-186.24 0.41,-372.09 0.8,-558.33 358.13,0 717.06,0 1076,0 -1.59,-173.09 0.41,-345.38 0.8,-518.06 371.7,-0.8 743.79,-0.8 1116.27,-0.41 -1.59,172.69 0,345.38 0,518.47 -187.83,-0.41 -372.09,0 -557.93,0.4 -2,185.45 -0.4,371.7 -0.8,557.54 -187.44,0 -371.7,0.4 -557.93,0.8 0,916.87 -0.41,1834.14 0,2751.41 184.64,-0.4 372.09,0 558.34,0.4 -0.41,358.54 -0.41,717.07 0,1076.01 -187.84,0 -372.1,0.4 -558.34,0.79 -0.41,2924.11 0.4,5848.61 0,8773.11 -187.84,-0.8 -372.09,0.4 -557.95,0.79 -1.99,185.05 -0.4,371.7 -0.79,557.55 -174.29,-0.41 -345.38,0.4 -517.67,0.79 -1.99,185.05 -0.4,371.7 -0.8,557.55 -187.44,-0.41 -371.68,0.4 -557.93,0.79 -0.8,544.79 0,1089.56 0,1634.74 -187.84,-0.8 -372.09,0 -558.34,0 -1.59,-187.05 0,-372.09 -0.4,-558.34 -187.45,-0.8 -371.7,0 -557.95,0 -0.79,544.77 0,1089.56 0,1634.73 -174.68,-0.79 -345.77,0.41 -518.46,0.8 -0.4,371.7 -0.4,743.79 0,1116.27 -187.84,-0.79 -372.09,0 -558.34,0 -0.4,-372.49 -0.4,-744.58 0,-1116.67 -372.89,-0.41 -744.59,0 -1116.27,-0.41 -2,-173.47 -0.8,-345.37 -0.8,-517.65 -173.88,-1.2 -345.38,-0.8 -517.67,-0.8 -1.59,-187.04 -0.4,-371.7 -0.79,-557.93 -187.45,-0.8 -371.7,0 -557.95,0 -1.2,185.05 0,372.09 -0.4,557.93 -187.04,-0.79 -371.7,0.41 -557.95,0.8 -0.4,358.54 -0.4,717.47 0,1076.4 -174.28,-0.8 -345.76,0 -518.46,0 0,-2193.48 0,-4386.96 0,-6580.44 171.5,-0.79 345.38,0 518.46,0 -0.4,372.09 -0.4,744.19 0,1116.29 184.66,-0.41 372.1,0.4 558.34,0.79 -0.4,358.54 -0.4,717.07 0.41,1076.01 184.25,-0.41 371.68,0.4 557.54,0.79 -1.2,185.05 0.4,371.7 0.79,557.55 171.1,-0.41 344.98,0.4 517.67,0.79 -1.2,185.05 0.4,371.7 0.8,557.95 371.29,0 743.79,0 1116.27,0 -1.59,-187.04 0,-372.09 0.4,-557.95 184.26,-1.2 371.7,-0.4 557.55,-0.79 -1.2,-186.64 0.4,-371.7 0.79,-557.55 171.09,-1.2 344.98,-0.4 518.06,-0.79 -0.4,-545.18 -0.4,-1089.96 0,-1634.74 -359.33,-0.79 -718.26,-0.4 -1076.8,0 -0.4,358.93 -0.4,717.87 0,1076.8 -187.84,-0.79 -372.09,0 -558.34,0 -0.4,-358.93 -0.4,-717.87 0,-1076.4 -187.44,-1.19 -372.09,-0.4 -558.34,-0.79 -0.4,-372.09 -0.4,-744.18 0,-1116.29 -359.33,-0.4 -717.87,0 -1076.39,0 -1.61,-173.47 -0.8,-345.76 -0.8,-518.46 -358.93,-0.4 -717.87,0 -1076.4,0 -0.4,-1103.51 -0.4,-2206.64 0,-3309.75 171.5,-0.79 345.38,-0.4 518.46,-0.79 -1.19,-186.25 0,-371.7 0,-557.95 -174.28,-0.4 -345.76,0 -518.05,-0.4 -0.8,-1448.9 0,-2897.79 -0.41,-4346.68 -187.44,-0.4 -372.09,0 -558.34,-0.4 -1.19,-186.25 0,-371.7 0,-557.95 184.66,-0.4 372.1,0 557.95,-0.4 -1.2,-186.25 0.4,-371.7 0.8,-557.95 358.13,0 717.06,0 1076,0 -1.2,-186.64 0.4,-372.09 0.8,-558.33 358.13,0 717.06,0 1076,0 -1.2,-173.09 0.4,-345.38 0.8,-518.06z"/>
  <g>
   <path class="fil0" d="M21934.76 4905.68c1276.21,-0.41 2552.41,0 3828.62,0 -0.4,372.09 -0.4,744.18 0,1116.67 358.54,0 717.47,0 1076.4,0 -0.8,-186.24 0.4,-372.09 0.79,-557.93 184.66,-0.8 371.7,-0.41 557.55,-0.8 -0.8,-186.25 0.4,-371.7 0.79,-557.93 184.66,-0.41 371.7,0 557.95,0 -1.2,185.84 0,372.09 0.4,557.93 184.66,0 371.7,0.4 557.54,0.8 -0.79,185.45 0.41,371.7 0.8,557.54 171.09,0 344.97,0.4 517.65,0.8 -0.79,185.45 0.41,371.68 0.8,557.54 184.66,0 371.7,0.4 557.95,0.79 0,1089.97 0,2179.52 0,3269.49 -187.45,0 -372.1,0.4 -558.34,0.79 -0.8,544.79 0.4,1089.56 0,1634.74 -359.34,0 -717.87,-0.4 -1076.4,0 -1.59,185.84 -0.4,372.09 -0.8,558.34 -187.04,-0.41 -371.68,0 -557.93,0 -0.8,-545.18 0.4,-1089.96 0,-1634.74 -187.45,-0.79 -372.09,-0.4 -557.95,-0.79 -1.59,-731.04 0.4,-1461.66 -0.79,-2192.69 -173.88,-0.4 -345.38,-0.4 -517.67,-0.79 -1.59,-186.25 -0.4,-371.7 -0.79,-557.95 -187.05,-0.4 -371.7,0 -557.95,0 0,1820.98 0,3642.37 0,5463.35 -187.04,-0.4 -372.09,0.41 -558.34,0.8 -1.2,730.63 0.8,1461.65 -0.4,2192.68 -187.04,-0.4 -371.7,0.4 -557.95,0.8 -0.4,557.93 0,1116.27 0,1674.62 -173.88,-0.8 -345.77,0 -518.46,0 -1.2,-187.04 0,-372.09 -0.4,-558.34 -187.04,-0.79 -371.7,0 -557.95,0 -0.79,731.02 0.8,1462.05 -0.4,2193.48 -187.04,-0.8 -371.7,0 -557.95,0 -0.4,-372.5 -0.4,-744.59 0,-1116.68 -545.17,0 -1089.96,-0.4 -1634.73,0 -1.2,185.45 -0.41,372.09 -0.8,558.34 -186.64,-0.8 -371.7,0 -557.93,0 -0.41,-359.33 0,-718.26 0,-1076.8 -187.05,-0.8 -372.1,0 -558.34,0 -0.41,358.54 0,717.47 0,1076.8 -173.88,-0.8 -345.77,0 -518.46,0 -0.41,-359.33 0,-717.87 0,-1076.8 -558.34,0 -1116.68,0 -1674.63,0 -1.2,171.89 -0.4,345.38 -0.79,518.46 -358.93,0 -717.87,-0.4 -1076.4,0 0,372.09 0,744.18 0,1116.68 -187.04,-0.8 -372.09,0 -558.34,0 -0.4,-372.5 0,-744.59 0,-1116.29 -187.04,-1.19 -372.09,-0.4 -558.34,-0.79 -0.4,-358.93 0,-717.47 0,-1076.01 -173.49,-1.19 -345.37,-0.4 -518.06,-0.79 -1.59,-731.02 0.41,-1461.65 -0.79,-2192.68 -186.64,-0.8 -372.09,-0.41 -557.95,-0.8 0,-544.77 0,-1089.56 0,-1634.34 185.45,-0.8 372.09,-0.4 558.34,-0.8 -0.4,-372.09 0,-744.18 0,-1115.88 172.29,-0.79 345.38,-0.79 518.06,-0.79 -0.4,-173.09 0.4,-345.38 0.79,-517.67 185.05,-0.8 371.7,-0.4 557.55,-0.8 -0.4,-186.24 0.4,-371.68 0.79,-557.93 371.7,0 743.79,0 1115.89,0 -0.41,-186.64 0.4,-372.09 0.79,-558.34 358.54,-0.4 717.07,0 1076.01,0 -0.41,-186.64 0.4,-372.09 0.79,-557.95 185.05,-0.79 372.09,-0.4 557.95,-0.79 0,-358.93 0,-717.47 0,-1076.4 -372.5,-0.4 -744.59,-0.4 -1116.68,0 -0.8,185.84 0,372.09 -0.4,557.95 -173.49,0 -345.38,0.4 -517.67,0.79 -1.2,172.29 -0.79,344.97 -0.79,517.67 -186.64,0 -371.7,0.4 -557.55,0.79 -1.2,185.45 -0.4,371.7 -0.79,557.95 -372.09,0 -744.19,0 -1116.29,0 -0.79,185.84 0,372.09 -0.4,558.34 -358.93,0 -717.87,0 -1076.4,0 -0.79,-186.64 0,-372.09 0,-558.34 185.45,-0.4 372.09,0 558.34,-0.4 0.4,-1462.06 -0.4,-2924.5 0.4,-4386.56 171.89,-0.4 344.98,0 518.06,0 -0.79,185.85 0,372.1 0.4,557.95 185.05,0 371.7,0.4 557.55,0.8 -0.4,185.45 0.4,371.68 0.79,557.93 371.7,0.4 743.79,0.4 1116.29,0 -0.8,-186.64 0,-372.09 0.4,-558.34 358.54,0 717.07,0 1076.01,0 -0.41,-186.64 0.4,-372.09 0.79,-558.34 371.7,-0.4 743.79,-0.4 1116.29,0 -0.8,185.85 0,372.1 0.4,557.95 171.48,0 344.97,0.4 517.65,0.8 -0.79,185.45 0.41,371.68 0.8,557.93 371.7,0 743.79,0 1115.88,0 -0.79,172.68 0.4,345.38 0.8,518.06 185.05,0 371.7,0.4 557.93,0.8 0.41,2924.1 -0.4,5848.6 0,8773.1 171.89,-0.4 345.38,0.4 518.46,0.8 -0.4,371.68 -0.4,744.18 0,1116.27 185.05,-0.8 372.1,0 558.34,0 0,-3655.92 0,-7311.45 0,-10967.38 -359.33,0 -718.26,0 -1076.8,0 -0.4,-372.49 -0.4,-744.58 0,-1116.67l0 0zm-3309.75 6580.43c-0.4,186.25 -1.2,371.7 -0.79,557.93 -185.85,0.41 -372.5,0 -557.55,0.8 -0.4,185.84 -1.2,371.3 -0.79,557.54 -172.69,0 -345.77,0 -517.67,0.8 -0.4,185.84 -1.2,371.29 -0.79,557.54 -185.85,0.4 -372.5,0 -557.95,0.8 -0.4,358.53 -0.4,717.06 0,1076 186.25,0.4 371.3,0 558.34,0.8 0,371.7 -0.4,743.79 0,1116.27 358.93,0 717.47,0 1076.8,0 0,-372.49 -0.4,-744.58 0,-1116.68 186.25,0 371.29,-0.79 557.93,0 0.41,186.25 -0.4,371.7 0.41,558.34 186.24,0 371.29,-0.79 558.34,0 0,-1103.51 0,-2206.64 0,-3310.15 -372.5,-0.4 -744.59,-0.4 -1116.29,0z"/>
  </g>
  <path class="fil0" d="M27398.51 12602.78c185.05,-0.8 372.49,0 558.34,0 -1.2,172.29 0,345.76 0,518.46 -187.45,-0.41 -372.09,0 -558.34,0 -1.2,-173.49 -0.4,-345.77 0,-518.46z"/>
 </g>
</svg>
